<mxfile host="Electron" agent="Mozilla/5.0 (Windows NT 10.0; Win64; x64) AppleWebKit/537.36 (KHTML, like Gecko) draw.io/26.2.2 Chrome/134.0.6998.178 Electron/35.1.2 Safari/537.36" version="26.2.2">
  <diagram name="Page-1" id="M-Ef8Z2-noRnOI7Krq5e">
    <mxGraphModel dx="948" dy="662" grid="1" gridSize="10" guides="1" tooltips="1" connect="1" arrows="1" fold="1" page="1" pageScale="1" pageWidth="1200" pageHeight="1920" math="0" shadow="0">
      <root>
        <mxCell id="0" />
        <mxCell id="1" parent="0" />
        <mxCell id="3ur9gsYHsS7Vl2ftzdm_-1" value="&lt;h1 style=&quot;margin-top: 0px;&quot;&gt;&lt;font style=&quot;font-size: 32px;&quot;&gt;Data Flow Diagram&lt;/font&gt;&lt;/h1&gt;" style="text;html=1;whiteSpace=wrap;overflow=hidden;rounded=0;" parent="1" vertex="1">
          <mxGeometry x="60" y="30" width="310" height="50" as="geometry" />
        </mxCell>
        <mxCell id="3ur9gsYHsS7Vl2ftzdm_-2" value="" style="rounded=0;whiteSpace=wrap;html=1;fillColor=none;dashed=1;strokeColor=light-dark(#605c5c, #ededed);" parent="1" vertex="1">
          <mxGeometry x="60" y="200" width="185" height="450" as="geometry" />
        </mxCell>
        <mxCell id="3ur9gsYHsS7Vl2ftzdm_-3" value="&lt;font style=&quot;font-size: 24px;&quot;&gt;Sources&lt;/font&gt;" style="rounded=0;whiteSpace=wrap;html=1;strokeColor=none;" parent="1" vertex="1">
          <mxGeometry x="105" y="180" width="95" height="30" as="geometry" />
        </mxCell>
        <mxCell id="3ur9gsYHsS7Vl2ftzdm_-10" value="&lt;font style=&quot;font-size: 20px;&quot;&gt;Data Warehouse&lt;/font&gt;" style="rounded=0;whiteSpace=wrap;html=1;strokeColor=none;" parent="1" vertex="1">
          <mxGeometry x="1242.5" y="180" width="155" height="30" as="geometry" />
        </mxCell>
        <mxCell id="6GRPE5hxXXjFxgSaxTGb-13" style="edgeStyle=orthogonalEdgeStyle;rounded=0;orthogonalLoop=1;jettySize=auto;html=1;" parent="1" source="6GRPE5hxXXjFxgSaxTGb-1" target="6GRPE5hxXXjFxgSaxTGb-8" edge="1">
          <mxGeometry relative="1" as="geometry" />
        </mxCell>
        <mxCell id="6GRPE5hxXXjFxgSaxTGb-14" style="edgeStyle=orthogonalEdgeStyle;rounded=0;orthogonalLoop=1;jettySize=auto;html=1;entryX=0;entryY=0.5;entryDx=0;entryDy=0;" parent="1" source="6GRPE5hxXXjFxgSaxTGb-1" target="6GRPE5hxXXjFxgSaxTGb-5" edge="1">
          <mxGeometry relative="1" as="geometry" />
        </mxCell>
        <mxCell id="6GRPE5hxXXjFxgSaxTGb-15" style="edgeStyle=orthogonalEdgeStyle;rounded=0;orthogonalLoop=1;jettySize=auto;html=1;entryX=0;entryY=0.5;entryDx=0;entryDy=0;" parent="1" source="6GRPE5hxXXjFxgSaxTGb-1" target="6GRPE5hxXXjFxgSaxTGb-9" edge="1">
          <mxGeometry relative="1" as="geometry" />
        </mxCell>
        <mxCell id="6GRPE5hxXXjFxgSaxTGb-1" value="" style="image;aspect=fixed;html=1;points=[];align=center;fontSize=12;image=img/lib/azure2/general/Folder_Blank.svg;" parent="1" vertex="1">
          <mxGeometry x="122.5" y="340" width="60" height="48.7" as="geometry" />
        </mxCell>
        <mxCell id="6GRPE5hxXXjFxgSaxTGb-16" style="edgeStyle=orthogonalEdgeStyle;rounded=0;orthogonalLoop=1;jettySize=auto;html=1;" parent="1" source="6GRPE5hxXXjFxgSaxTGb-2" target="6GRPE5hxXXjFxgSaxTGb-10" edge="1">
          <mxGeometry relative="1" as="geometry" />
        </mxCell>
        <mxCell id="6GRPE5hxXXjFxgSaxTGb-17" style="edgeStyle=orthogonalEdgeStyle;rounded=0;orthogonalLoop=1;jettySize=auto;html=1;entryX=0;entryY=0.5;entryDx=0;entryDy=0;" parent="1" source="6GRPE5hxXXjFxgSaxTGb-2" target="6GRPE5hxXXjFxgSaxTGb-11" edge="1">
          <mxGeometry relative="1" as="geometry" />
        </mxCell>
        <mxCell id="6GRPE5hxXXjFxgSaxTGb-18" style="edgeStyle=orthogonalEdgeStyle;rounded=0;orthogonalLoop=1;jettySize=auto;html=1;entryX=0;entryY=0.5;entryDx=0;entryDy=0;" parent="1" source="6GRPE5hxXXjFxgSaxTGb-2" target="6GRPE5hxXXjFxgSaxTGb-12" edge="1">
          <mxGeometry relative="1" as="geometry" />
        </mxCell>
        <mxCell id="6GRPE5hxXXjFxgSaxTGb-2" value="" style="image;aspect=fixed;html=1;points=[];align=center;fontSize=12;image=img/lib/azure2/general/Folder_Blank.svg;" parent="1" vertex="1">
          <mxGeometry x="122.5" y="520" width="60" height="48.7" as="geometry" />
        </mxCell>
        <mxCell id="6GRPE5hxXXjFxgSaxTGb-3" value="" style="rounded=1;whiteSpace=wrap;html=1;fillColor=none;strokeColor=#d79b00;" parent="1" vertex="1">
          <mxGeometry x="320" y="250" width="210" height="400" as="geometry" />
        </mxCell>
        <mxCell id="6GRPE5hxXXjFxgSaxTGb-4" value="&lt;font style=&quot;font-size: 24px;&quot;&gt;&lt;b&gt;Bronze Layer&lt;/b&gt;&lt;/font&gt;" style="rounded=1;whiteSpace=wrap;html=1;fillColor=#ffe6cc;strokeColor=#d79b00;" parent="1" vertex="1">
          <mxGeometry x="320" y="200" width="210" height="45" as="geometry" />
        </mxCell>
        <mxCell id="6GRPE5hxXXjFxgSaxTGb-28" style="edgeStyle=orthogonalEdgeStyle;rounded=0;orthogonalLoop=1;jettySize=auto;html=1;entryX=0;entryY=0.5;entryDx=0;entryDy=0;" parent="1" source="6GRPE5hxXXjFxgSaxTGb-5" target="6GRPE5hxXXjFxgSaxTGb-22" edge="1">
          <mxGeometry relative="1" as="geometry" />
        </mxCell>
        <mxCell id="6GRPE5hxXXjFxgSaxTGb-5" value="&lt;font style=&quot;font-size: 20px;&quot;&gt;crm_sales_details&lt;/font&gt;" style="rounded=1;whiteSpace=wrap;html=1;fillColor=#ffe6cc;strokeColor=#d79b00;" parent="1" vertex="1">
          <mxGeometry x="330" y="280" width="190" height="40" as="geometry" />
        </mxCell>
        <mxCell id="6GRPE5hxXXjFxgSaxTGb-6" value="&lt;b&gt;&lt;font style=&quot;font-size: 20px;&quot;&gt;CRM&lt;/font&gt;&lt;/b&gt;" style="text;html=1;align=center;verticalAlign=middle;whiteSpace=wrap;rounded=0;" parent="1" vertex="1">
          <mxGeometry x="122.5" y="388.70000000000005" width="60" height="30" as="geometry" />
        </mxCell>
        <mxCell id="6GRPE5hxXXjFxgSaxTGb-7" value="&lt;b&gt;&lt;font style=&quot;font-size: 20px;&quot;&gt;ERP&lt;/font&gt;&lt;/b&gt;" style="text;html=1;align=center;verticalAlign=middle;whiteSpace=wrap;rounded=0;" parent="1" vertex="1">
          <mxGeometry x="122.5" y="568.7" width="60" height="30" as="geometry" />
        </mxCell>
        <mxCell id="6GRPE5hxXXjFxgSaxTGb-29" style="edgeStyle=orthogonalEdgeStyle;rounded=0;orthogonalLoop=1;jettySize=auto;html=1;entryX=0;entryY=0.5;entryDx=0;entryDy=0;" parent="1" source="6GRPE5hxXXjFxgSaxTGb-8" target="6GRPE5hxXXjFxgSaxTGb-23" edge="1">
          <mxGeometry relative="1" as="geometry" />
        </mxCell>
        <mxCell id="6GRPE5hxXXjFxgSaxTGb-8" value="&lt;font style=&quot;font-size: 20px;&quot;&gt;crm_cust_info&lt;/font&gt;" style="rounded=1;whiteSpace=wrap;html=1;fillColor=#ffe6cc;strokeColor=#d79b00;" parent="1" vertex="1">
          <mxGeometry x="330" y="344.35" width="190" height="40" as="geometry" />
        </mxCell>
        <mxCell id="6GRPE5hxXXjFxgSaxTGb-30" style="edgeStyle=orthogonalEdgeStyle;rounded=0;orthogonalLoop=1;jettySize=auto;html=1;entryX=0;entryY=0.5;entryDx=0;entryDy=0;" parent="1" source="6GRPE5hxXXjFxgSaxTGb-9" target="6GRPE5hxXXjFxgSaxTGb-24" edge="1">
          <mxGeometry relative="1" as="geometry" />
        </mxCell>
        <mxCell id="6GRPE5hxXXjFxgSaxTGb-9" value="&lt;font style=&quot;font-size: 20px;&quot;&gt;crm_prod_info&lt;/font&gt;" style="rounded=1;whiteSpace=wrap;html=1;fillColor=#ffe6cc;strokeColor=#d79b00;" parent="1" vertex="1">
          <mxGeometry x="330" y="405" width="190" height="40" as="geometry" />
        </mxCell>
        <mxCell id="6GRPE5hxXXjFxgSaxTGb-32" style="edgeStyle=orthogonalEdgeStyle;rounded=0;orthogonalLoop=1;jettySize=auto;html=1;entryX=0;entryY=0.5;entryDx=0;entryDy=0;" parent="1" source="6GRPE5hxXXjFxgSaxTGb-10" target="6GRPE5hxXXjFxgSaxTGb-25" edge="1">
          <mxGeometry relative="1" as="geometry" />
        </mxCell>
        <mxCell id="6GRPE5hxXXjFxgSaxTGb-10" value="&lt;font style=&quot;font-size: 20px;&quot;&gt;erp_loc_a101&lt;/font&gt;" style="rounded=1;whiteSpace=wrap;html=1;fillColor=#ffe6cc;strokeColor=#d79b00;" parent="1" vertex="1">
          <mxGeometry x="330" y="524.35" width="190" height="40" as="geometry" />
        </mxCell>
        <mxCell id="6GRPE5hxXXjFxgSaxTGb-31" style="edgeStyle=orthogonalEdgeStyle;rounded=0;orthogonalLoop=1;jettySize=auto;html=1;exitX=1;exitY=0.5;exitDx=0;exitDy=0;entryX=0;entryY=0.5;entryDx=0;entryDy=0;" parent="1" source="6GRPE5hxXXjFxgSaxTGb-11" target="6GRPE5hxXXjFxgSaxTGb-26" edge="1">
          <mxGeometry relative="1" as="geometry" />
        </mxCell>
        <mxCell id="6GRPE5hxXXjFxgSaxTGb-11" value="&lt;font style=&quot;font-size: 20px;&quot;&gt;erp_cust_az12&lt;/font&gt;" style="rounded=1;whiteSpace=wrap;html=1;fillColor=#ffe6cc;strokeColor=#d79b00;" parent="1" vertex="1">
          <mxGeometry x="330" y="460" width="190" height="40" as="geometry" />
        </mxCell>
        <mxCell id="6GRPE5hxXXjFxgSaxTGb-33" style="edgeStyle=orthogonalEdgeStyle;rounded=0;orthogonalLoop=1;jettySize=auto;html=1;entryX=0;entryY=0.5;entryDx=0;entryDy=0;" parent="1" source="6GRPE5hxXXjFxgSaxTGb-12" target="6GRPE5hxXXjFxgSaxTGb-27" edge="1">
          <mxGeometry relative="1" as="geometry" />
        </mxCell>
        <mxCell id="6GRPE5hxXXjFxgSaxTGb-12" value="&lt;font style=&quot;font-size: 20px;&quot;&gt;erp_px_cat_g1v2&lt;/font&gt;" style="rounded=1;whiteSpace=wrap;html=1;fillColor=#ffe6cc;strokeColor=#d79b00;" parent="1" vertex="1">
          <mxGeometry x="330" y="584.35" width="190" height="40" as="geometry" />
        </mxCell>
        <mxCell id="6GRPE5hxXXjFxgSaxTGb-20" value="" style="rounded=1;whiteSpace=wrap;html=1;fillColor=none;strokeColor=#666666;fontColor=#333333;" parent="1" vertex="1">
          <mxGeometry x="600" y="250" width="210" height="400" as="geometry" />
        </mxCell>
        <mxCell id="6GRPE5hxXXjFxgSaxTGb-21" value="&lt;font style=&quot;font-size: 24px;&quot;&gt;&lt;b&gt;Silver Layer&lt;/b&gt;&lt;/font&gt;" style="rounded=1;whiteSpace=wrap;html=1;fillColor=#f5f5f5;strokeColor=#666666;fontColor=#333333;" parent="1" vertex="1">
          <mxGeometry x="600" y="200" width="210" height="45" as="geometry" />
        </mxCell>
        <mxCell id="6GRPE5hxXXjFxgSaxTGb-22" value="&lt;font style=&quot;font-size: 20px;&quot;&gt;crm_sales_details&lt;/font&gt;" style="rounded=1;whiteSpace=wrap;html=1;fillColor=#f5f5f5;strokeColor=#666666;fontColor=#333333;" parent="1" vertex="1">
          <mxGeometry x="610" y="280" width="190" height="40" as="geometry" />
        </mxCell>
        <mxCell id="6GRPE5hxXXjFxgSaxTGb-23" value="&lt;font style=&quot;font-size: 20px;&quot;&gt;crm_cust_info&lt;/font&gt;" style="rounded=1;whiteSpace=wrap;html=1;fillColor=#f5f5f5;strokeColor=#666666;fontColor=#333333;" parent="1" vertex="1">
          <mxGeometry x="610" y="344.35" width="190" height="40" as="geometry" />
        </mxCell>
        <mxCell id="6GRPE5hxXXjFxgSaxTGb-24" value="&lt;font style=&quot;font-size: 20px;&quot;&gt;crm_prod_info&lt;/font&gt;" style="rounded=1;whiteSpace=wrap;html=1;fillColor=#f5f5f5;strokeColor=#666666;fontColor=#333333;" parent="1" vertex="1">
          <mxGeometry x="610" y="405" width="190" height="40" as="geometry" />
        </mxCell>
        <mxCell id="6GRPE5hxXXjFxgSaxTGb-25" value="&lt;font style=&quot;font-size: 20px;&quot;&gt;erp_loc_a101&lt;/font&gt;" style="rounded=1;whiteSpace=wrap;html=1;fillColor=#f5f5f5;strokeColor=#666666;fontColor=#333333;" parent="1" vertex="1">
          <mxGeometry x="610" y="524.35" width="190" height="40" as="geometry" />
        </mxCell>
        <mxCell id="6GRPE5hxXXjFxgSaxTGb-26" value="&lt;font style=&quot;font-size: 20px;&quot;&gt;erp_cust_az12&lt;/font&gt;" style="rounded=1;whiteSpace=wrap;html=1;fillColor=#f5f5f5;strokeColor=#666666;fontColor=#333333;" parent="1" vertex="1">
          <mxGeometry x="610" y="460" width="190" height="40" as="geometry" />
        </mxCell>
        <mxCell id="6GRPE5hxXXjFxgSaxTGb-27" value="&lt;font style=&quot;font-size: 20px;&quot;&gt;erp_px_cat_g1v2&lt;/font&gt;" style="rounded=1;whiteSpace=wrap;html=1;fillColor=#f5f5f5;strokeColor=#666666;fontColor=#333333;" parent="1" vertex="1">
          <mxGeometry x="610" y="584.35" width="190" height="40" as="geometry" />
        </mxCell>
        <mxCell id="qv-IxY6Y-z8xGQJPSNOy-1" value="" style="rounded=1;whiteSpace=wrap;html=1;fillColor=none;strokeColor=#d6b656;" parent="1" vertex="1">
          <mxGeometry x="870" y="250" width="210" height="400" as="geometry" />
        </mxCell>
        <mxCell id="qv-IxY6Y-z8xGQJPSNOy-2" value="&lt;font style=&quot;font-size: 24px;&quot;&gt;&lt;b&gt;Silver Layer&lt;/b&gt;&lt;/font&gt;" style="rounded=1;whiteSpace=wrap;html=1;fillColor=#fff2cc;strokeColor=#d6b656;" parent="1" vertex="1">
          <mxGeometry x="870" y="200" width="210" height="45" as="geometry" />
        </mxCell>
        <mxCell id="qv-IxY6Y-z8xGQJPSNOy-4" value="&lt;font style=&quot;font-size: 20px;&quot;&gt;fact_sales&lt;/font&gt;" style="rounded=1;whiteSpace=wrap;html=1;fillColor=#fff2cc;strokeColor=#d6b656;" parent="1" vertex="1">
          <mxGeometry x="880" y="300" width="190" height="40" as="geometry" />
        </mxCell>
        <mxCell id="qv-IxY6Y-z8xGQJPSNOy-5" value="&lt;font style=&quot;font-size: 20px;&quot;&gt;dim_customers&lt;/font&gt;" style="rounded=1;whiteSpace=wrap;html=1;fillColor=#fff2cc;strokeColor=#d6b656;" parent="1" vertex="1">
          <mxGeometry x="880" y="405" width="190" height="40" as="geometry" />
        </mxCell>
        <mxCell id="qv-IxY6Y-z8xGQJPSNOy-7" value="&lt;font style=&quot;font-size: 20px;&quot;&gt;dim_products&lt;/font&gt;" style="rounded=1;whiteSpace=wrap;html=1;fillColor=#fff2cc;strokeColor=#d6b656;" parent="1" vertex="1">
          <mxGeometry x="880" y="500" width="190" height="40" as="geometry" />
        </mxCell>
        <mxCell id="byLGurVehnMR7nYolIUr-7" value="" style="endArrow=classic;html=1;rounded=0;entryX=0;entryY=0.5;entryDx=0;entryDy=0;exitX=1;exitY=0.5;exitDx=0;exitDy=0;" edge="1" parent="1" source="6GRPE5hxXXjFxgSaxTGb-22" target="qv-IxY6Y-z8xGQJPSNOy-4">
          <mxGeometry width="50" height="50" relative="1" as="geometry">
            <mxPoint x="820" y="340" as="sourcePoint" />
            <mxPoint x="870" y="290" as="targetPoint" />
          </mxGeometry>
        </mxCell>
        <mxCell id="byLGurVehnMR7nYolIUr-8" value="" style="endArrow=classic;html=1;rounded=0;exitX=1;exitY=0.5;exitDx=0;exitDy=0;" edge="1" parent="1" source="6GRPE5hxXXjFxgSaxTGb-23">
          <mxGeometry width="50" height="50" relative="1" as="geometry">
            <mxPoint x="810" y="430" as="sourcePoint" />
            <mxPoint x="880" y="430" as="targetPoint" />
          </mxGeometry>
        </mxCell>
        <mxCell id="byLGurVehnMR7nYolIUr-9" value="" style="endArrow=classic;html=1;rounded=0;entryX=0;entryY=0.5;entryDx=0;entryDy=0;exitX=1;exitY=0.5;exitDx=0;exitDy=0;" edge="1" parent="1" source="6GRPE5hxXXjFxgSaxTGb-26" target="qv-IxY6Y-z8xGQJPSNOy-5">
          <mxGeometry width="50" height="50" relative="1" as="geometry">
            <mxPoint x="810" y="490" as="sourcePoint" />
            <mxPoint x="860" y="440" as="targetPoint" />
          </mxGeometry>
        </mxCell>
        <mxCell id="byLGurVehnMR7nYolIUr-10" value="" style="endArrow=classic;html=1;rounded=0;" edge="1" parent="1">
          <mxGeometry width="50" height="50" relative="1" as="geometry">
            <mxPoint x="800" y="540" as="sourcePoint" />
            <mxPoint x="880" y="427" as="targetPoint" />
          </mxGeometry>
        </mxCell>
        <mxCell id="byLGurVehnMR7nYolIUr-11" value="" style="endArrow=classic;html=1;rounded=0;entryX=0;entryY=0.5;entryDx=0;entryDy=0;exitX=1;exitY=0.5;exitDx=0;exitDy=0;" edge="1" parent="1" source="6GRPE5hxXXjFxgSaxTGb-27" target="qv-IxY6Y-z8xGQJPSNOy-7">
          <mxGeometry width="50" height="50" relative="1" as="geometry">
            <mxPoint x="820" y="580" as="sourcePoint" />
            <mxPoint x="870" y="530" as="targetPoint" />
          </mxGeometry>
        </mxCell>
        <mxCell id="byLGurVehnMR7nYolIUr-12" value="" style="endArrow=classic;html=1;rounded=0;entryX=0;entryY=0.5;entryDx=0;entryDy=0;exitX=1;exitY=0.5;exitDx=0;exitDy=0;" edge="1" parent="1" source="6GRPE5hxXXjFxgSaxTGb-24" target="qv-IxY6Y-z8xGQJPSNOy-7">
          <mxGeometry width="50" height="50" relative="1" as="geometry">
            <mxPoint x="800" y="460" as="sourcePoint" />
            <mxPoint x="850" y="410" as="targetPoint" />
          </mxGeometry>
        </mxCell>
      </root>
    </mxGraphModel>
  </diagram>
</mxfile>
